<?xml version="1.0" encoding="utf-8"?>
<?xml-stylesheet type="text/css" href="animate.css"?>
<!-- Generator: Adobe Illustrator 19.1.0, SVG Export Plug-In . SVG Version: 6.00 Build 0)  -->
<svg version="1.1" id="Layer_1" xmlns="http://www.w3.org/2000/svg" xmlns:xlink="http://www.w3.org/1999/xlink" x="0px" y="0px"
viewBox="0 0 912 464.75" enable-background="new 0 0 912 464.75" xml:space="preserve">
   

<g class="star animated blades infinite grow">
<path  fill="#0079AD" d="M682.824,220.02c-0.094-0.126-0.218-0.156-0.312-0.28c-0.216-0.186-0.403-0.404-0.652-0.528
c-0.404-0.248-0.839-0.404-1.305-0.466l-2.58-0.404c-0.032-5.345-0.28-10.661-0.684-16.008l2.673-0.621
c1.833-0.436,3.046-2.145,2.86-4.01c-1.337-14.049-4.072-27.787-8.051-41.089c-1.803-6.092-3.822-12.153-6.186-18.151
c-0.683-1.741-2.548-2.673-4.381-2.269l-2.611,0.652c-2.021-4.911-4.259-9.728-6.682-14.515l2.144-1.555
c1.523-1.119,1.989-3.17,1.089-4.817c-0.746-1.429-1.585-2.86-2.362-4.321l-0.032,0.032c-4.134-7.366-8.703-14.609-13.8-21.603
c-6.06-8.391-12.65-16.13-19.644-23.373c-1.273-1.337-3.356-1.523-4.879-0.436l-2.145,1.587c-3.823-3.792-7.769-7.366-11.779-10.817
l1.429-2.393c0.995-1.585,0.654-3.668-0.777-4.849c-10.102-8.329-20.855-15.634-32.076-21.881l0.03-0.032
c-0.403-0.216-0.807-0.404-1.211-0.621c-2.145-1.181-4.29-2.331-6.466-3.42c-1.491-0.777-2.984-1.523-4.507-2.238
c-0.963-0.466-1.957-0.932-2.952-1.399c-1.555-0.684-3.108-1.491-4.695-2.175c-0.869-0.373-1.801-0.404-2.642-0.094
c-0.87,0.25-1.647,0.778-2.113,1.585l-1.399,2.301c-4.911-2.051-9.914-3.854-15.011-5.501l0.434-2.642
c0.156-0.932-0.062-1.865-0.559-2.611c-0.466-0.746-1.182-1.337-2.083-1.617c-1.585-0.497-3.17-0.901-4.755-1.335v0.03
c-8.081-2.3-16.412-4.165-24.927-5.533c-10.226-1.615-20.358-2.454-30.398-2.642c-1.865-0.03-3.48,1.337-3.76,3.172l-0.436,2.61
c-5.377,0-10.691,0.28-16.006,0.652l-0.622-2.672c-0.434-1.803-2.145-3.015-4.009-2.86c-13.056,1.243-25.829,3.698-38.231,7.242
V8.014c-7.086,1.989-14.079,4.32-21.011,7.056c-1.709,0.683-2.704,2.548-2.237,4.351l0.621,2.611
c-4.941,2.082-9.79,4.351-14.515,6.744l-1.553-2.113c-0.528-0.716-1.243-1.182-2.051-1.399c-0.902-0.248-1.897-0.186-2.767,0.28
c-8.858,4.693-17.529,10.038-25.89,16.13c-0.995,0.715-1.865,1.493-2.828,2.239c-2.363,1.739-4.663,3.574-6.962,5.438
c-1.461,1.182-2.922,2.393-4.352,3.638c-2.61,2.268-5.221,4.599-7.739,6.992c-0.466,0.436-0.995,0.87-1.493,1.337
c-1.335,1.275-1.523,3.388-0.404,4.879l1.555,2.145c-1.895,1.865-3.698,3.792-5.47,5.688c0,0.032-0.032,0.094-0.064,0.124
c-1.833,1.959-3.574,3.978-5.314,5.968l-2.269-1.367l0,0l-0.094-0.062c-1.585-0.963-3.667-0.622-4.849,0.808
c-10.909,13.24-20.046,27.569-27.413,42.644c-1.523,3.046-2.984,6.154-4.352,9.294c-0.745,1.709-0.124,3.698,1.493,4.693
l2.207,1.367c-0.062,0.186-0.156,0.404-0.25,0.622c-1.927,4.723-3.698,9.542-5.283,14.421l-2.58-0.434
c-1.833-0.28-3.606,0.839-4.165,2.642c-5.937,19.488-9.137,39.722-9.512,60.111c-0.03,1.399,0.746,2.673,1.897,3.326
c0.404,0.248,0.839,0.404,1.305,0.466l2.518,0.404c0,5.377,0.28,10.722,0.684,16.008l-2.58,0.59
c-0.902,0.248-1.679,0.776-2.177,1.523c-0.528,0.715-0.777,1.585-0.683,2.518c0.59,6.402,1.523,12.681,2.672,18.928
c2.517,13.614,6.31,27.104,11.501,40.25c0.528,1.307,1.709,2.177,3.046,2.331c0.466,0.062,0.933,0.062,1.399-0.03l2.424-0.59
c1.461,3.48,3.046,6.9,4.695,10.256c0.683,1.429,1.335,2.86,2.051,4.289l-2.051,1.493c-1.523,1.087-1.989,3.138-1.089,4.755
c0,0.032,0,0.032,0,0.032v0.03c1.089,2.051,2.237,4.072,3.388,6.062c0.094,0.186,0.156,0.341,0.28,0.496
c0.278,0.498,0.559,0.995,0.87,1.461c3.542,6.061,7.365,12.029,11.593,17.841c0.342,0.434,0.715,0.87,1.025,1.305
c2.611,3.544,5.315,6.994,8.143,10.382c0.218,0.28,0.466,0.559,0.716,0.839c3.138,3.73,6.402,7.336,9.79,10.848
c1.275,1.367,3.388,1.553,4.879,0.434l2.051-1.493c3.792,3.762,7.74,7.366,11.781,10.848l-1.369,2.237
c-0.995,1.585-0.621,3.668,0.808,4.849c7.212,5.968,14.765,11.345,22.566,16.256c9.294,5.874,19.115,11.127,29.372,15.603
c1.709,0.714,3.73,0.092,4.693-1.493l1.337-2.175c0.032,0,0.062,0,0.062,0c4.911,2.019,9.916,3.854,14.981,5.501l-0.372,2.486
c-0.312,1.865,0.808,3.638,2.579,4.166l0.062,0.03l0,0c9.604,2.922,19.52,5.253,29.714,6.87c10.226,1.647,20.358,2.454,30.397,2.642
c1.865,0.03,3.482-1.307,3.762-3.14l0.404-2.518c5.376-0.032,10.723-0.28,16.006-0.684l0.591,2.487
c0.124,0.466,0.312,0.901,0.59,1.275c0.716,1.119,2.051,1.833,3.45,1.677c14.795-1.399,29.217-4.351,43.142-8.639
c0.559-0.188,1.119-0.342,1.677-0.528c0.466-0.126,0.932-0.312,1.369-0.436c4.383-1.429,8.703-2.952,12.992-4.631
c0.435-0.186,0.839-0.434,1.181-0.746c0.963-0.901,1.429-2.299,1.119-3.636l-0.59-2.486c1.399-0.592,2.766-1.213,4.165-1.835
c3.482-1.553,6.962-3.17,10.382-4.911l1.491,2.021c0,0.03,0.032,0.03,0.032,0.062c1.087,1.523,3.138,1.989,4.787,1.087
c17.995-9.572,34.593-21.631,49.264-35.774c1.335-1.305,1.523-3.388,0.403-4.879l-1.523-2.115c3.792-3.822,7.398-7.769,10.848-11.81
l2.269,1.367c0.404,0.28,0.839,0.434,1.273,0.497c1.307,0.25,2.674-0.186,3.574-1.273c1.617-1.959,3.172-3.916,4.695-5.906l0,0
c0.434-0.56,0.808-1.119,1.211-1.647c10.258-13.552,19.023-28.409,25.953-44.354c0.746-1.709,0.094-3.698-1.491-4.661l-0.094-0.062
l0,0l-2.175-1.337c1.677-4.04,3.138-8.113,4.537-12.246c0.312-0.933,0.684-1.865,0.964-2.798l2.61,0.404
c1.835,0.278,3.638-0.84,4.166-2.611c2.922-9.604,5.283-19.52,6.9-29.714c1.615-10.226,2.424-20.389,2.61-30.429
C683.757,221.574,683.414,220.703,682.824,220.02z M527.106,62.375c0.56-0.434,1.337-0.559,1.989-0.28
c0.218,0.094,0.436,0.186,0.622,0.25c3.17,1.305,6.248,2.704,9.324,4.195l0,0c0.933,0.466,1.865,0.87,2.766,1.337
c33.288,16.97,59.646,44.135,75.653,77.455c1.149,2.393,2.237,4.817,3.262,7.242c0.28,0.683,0.59,1.337,0.87,2.019
c0.062,0.156,0.094,0.312,0.094,0.466c0.03,0.094,0.03,0.186,0.062,0.28c0,0.186-0.032,0.372-0.094,0.56
c-0.03,0.062-0.062,0.124-0.092,0.186c-0.062,0.154-0.124,0.342-0.25,0.497c-0.216,0.28-0.497,0.498-0.839,0.622c0,0,0,0-0.03,0
c-0.312,0.124-0.654,0.156-0.995,0.094l-20.576-3.264c-0.622-0.062-1.181-0.498-1.461-1.057
c-14.205-28.689-36.738-51.471-65.302-66.018c-0.436-0.248-0.902-0.466-1.337-0.621c-0.59-0.312-1.026-0.87-1.119-1.523
l-3.264-20.576C526.267,63.526,526.578,62.811,527.106,62.375z M335.458,109.96c0.094-0.248,0.126-0.434,0.28-0.621
c0.124-0.156,0.28-0.312,0.404-0.466c2.145-2.518,4.383-4.911,6.652-7.304c26.418-27.601,61.199-45.317,98.962-50.507
c1.307-0.156,2.611-0.342,3.916-0.498c2.239-0.248,4.445-0.497,6.684-0.652c0.715-0.03,1.397,0.28,1.801,0.901
c0.188,0.28,0.28,0.592,0.312,0.902c0,0.092-0.032,0.186-0.032,0.28c-0.03,0.278-0.03,0.559-0.186,0.807l-3.636,7.18l-2.984,5.813
l0,0l-2.829,5.563c-0.279,0.591-0.839,0.963-1.461,1.057c-31.764,4.693-61.477,19.83-84.075,42.86
c-0.372,0.374-0.869,0.622-1.397,0.622c-0.126,0-0.218-0.032-0.312-0.062l-6.154-0.964l0,0l-14.453-2.3
c-0.715-0.094-1.305-0.59-1.555-1.275C335.241,110.862,335.304,110.364,335.458,109.96z M334.061,288.398
c-0.032,0.218-0.062,0.466-0.156,0.684c0,0-0.032,0-0.032,0.032l-1.461,2.89l-7.987,15.634c-0.31,0.652-0.964,1.057-1.679,1.088
h-0.092c-0.684,0-1.337-0.342-1.679-0.932c-1.959-3.14-3.76-6.342-5.501-9.574c-0.28-0.559-0.59-1.119-0.87-1.709
c-1.461-2.828-2.86-5.688-4.165-8.609c-0.218-0.466-0.436-0.902-0.622-1.369c-1.461-3.324-2.828-6.682-4.04-10.07
c-0.186-0.466-0.31-0.901-0.466-1.367c-1.057-2.922-1.989-5.906-2.89-8.889c-0.218-0.746-0.436-1.461-0.622-2.207
c-1.927-6.93-3.418-13.986-4.445-21.103c-0.092-0.56-0.154-1.12-0.218-1.679c-0.466-3.326-0.807-6.62-1.057-9.978
c-0.03-0.31-0.062-0.621-0.062-0.901c-0.248-3.792-0.404-7.615-0.404-11.439c0-0.062,0-0.154,0-0.248
c0-3.792,0.156-7.583,0.436-11.375c0.03-0.684,0.062-1.369,0.124-2.051c0.124-1.555,0.28-3.108,0.466-4.695
c0.094-0.931,0.218-1.926,0.342-2.89c0.186-1.461,0.372-2.89,0.59-4.351c0.156-1.057,0.342-2.113,0.528-3.17
c0.248-1.461,0.497-2.892,0.808-4.352c0.154-0.777,0.342-1.523,0.497-2.3c0.342-1.617,0.684-3.232,1.089-4.881
c0.154-0.683,0.715-1.243,1.399-1.429c0.683-0.186,1.429,0,1.927,0.497l14.731,14.733c0.218,0.218,0.374,0.498,0.466,0.778
c0.094,0.31,0.126,0.621,0.064,0.933c-0.032,0.31-0.064,0.621-0.126,0.931c-0.03,0.188-0.062,0.404-0.092,0.592
c-0.094,0.559-0.156,1.119-0.248,1.677c-0.156,1.181-0.342,2.363-0.498,3.574c-0.124,1.151-0.248,2.331-0.372,3.512
c-0.062,0.654-0.124,1.307-0.188,1.989c-0.372,4.228-0.559,8.485-0.559,12.713c0,19.146,3.792,37.919,11.097,55.698
c0.341,0.807,0.683,1.615,1.025,2.424c0.498,1.181,1.027,2.331,1.555,3.45c0.995,2.237,2.051,4.445,3.2,6.62l0,0
c0.126,0.248,0.188,0.56,0.218,0.84C334.091,288.212,334.061,288.306,334.061,288.398z M506.561,381.799l-0.032,0.092
c-0.216,0.652-0.745,1.151-1.397,1.307c-7.616,1.865-15.261,3.2-22.97,3.978c-0.248,0.03-0.498,0.062-0.746,0.062
c-3.388,0.342-6.744,0.559-10.1,0.683c-0.778,0.032-1.523,0.062-2.301,0.062c-6.9,0.188-13.8-0.062-20.669-0.745
c-0.777-0.062-1.523-0.124-2.269-0.218c-3.014-0.342-6.03-0.777-9.013-1.275c-1.305-0.218-2.61-0.466-3.885-0.715
c-2.455-0.466-4.881-0.995-7.304-1.555c-0.87-0.216-1.771-0.403-2.642-0.621c-3.512-0.902-6.994-1.865-10.474-3.016
c-6.28-2.019-12.433-4.413-18.463-7.21l-0.28-0.124c-1.989-0.933-3.947-1.865-5.906-2.892c-4.103-2.082-8.143-4.351-12.184-6.868
c-0.59-0.372-0.963-1.057-0.933-1.771c0.032-0.684,0.436-1.337,1.057-1.647l18.555-9.48c0.56-0.28,1.244-0.28,1.803,0.03
c0.466,0.218,0.932,0.436,1.369,0.684h0.03h0.032c1.739,0.901,3.48,1.741,5.252,2.579c0.064,0.03,0.156,0.03,0.25,0.094
c1.647,0.745,3.294,1.491,4.973,2.175c0.466,0.186,0.933,0.372,1.367,0.559c1.275,0.498,2.549,0.995,3.822,1.493
c1.182,0.434,2.363,0.839,3.512,1.243c0.592,0.186,1.151,0.404,1.711,0.59c0.278,0.094,0.528,0.186,0.808,0.28
c0.652,0.186,1.305,0.372,1.926,0.559c1.431,0.436,2.892,0.87,4.321,1.244c1.337,0.372,2.642,0.745,3.978,1.057
c0.56,0.154,1.088,0.248,1.647,0.372c3.234,0.777,6.466,1.399,9.73,1.927c0.216,0.062,0.466,0.094,0.683,0.124
c0.126,0.032,0.28,0.032,0.404,0.062c1.741,0.28,3.512,0.528,5.285,0.746c0.34,0.032,0.683,0.062,1.025,0.094
c2.798,0.31,5.595,0.559,8.393,0.683c1.335,0.094,2.704,0.124,4.04,0.156c1.025,0.03,2.051,0.094,3.076,0.094
c0.312,0,0.622,0,0.932,0c2.207,0,4.445-0.064,6.682-0.156c0.188,0,0.342-0.032,0.528-0.032c2.767-0.124,5.533-0.372,8.299-0.652
c0.124-0.03,0.25-0.03,0.374-0.03c2.922-0.342,5.844-0.716,8.764-1.213c0.622-0.094,1.275,0.124,1.741,0.56l14.703,14.701
C506.561,380.4,506.748,381.114,506.561,381.799z M534.224,243.641c-5.625,2.86-9.418,10.288-8.423,16.504l16.132,101.916
c0.621,3.886-0.25,5.906-2.083,5.781c-1.119-0.062-2.549-0.901-4.227-2.58l-72.948-72.948c-1.555-1.553-3.606-2.704-5.812-3.45
c-4.104-1.367-8.859-1.305-12.495,0.56l-91.908,46.839c-5.595,2.86-7.863,0.592-5.003-5.003l46.839-91.908
c2.86-5.625,1.555-13.862-2.922-18.337l0,0l0,0l-72.948-72.918c-1.087-1.119-1.833-2.144-2.237-3.014
c-1.181-2.611,0.808-4.04,5.471-3.296l101.884,16.132c6.216,0.995,13.644-2.798,16.504-8.423l23.342-45.782l0,0l23.498-46.126
c0.715-1.399,1.461-2.424,2.175-3.076c2.113-1.959,4.072-0.498,4.817,4.165l16.132,101.884c0.995,6.217,6.9,12.121,13.116,13.116
l50.757,8.051l0,0l51.129,8.081c3.232,0.528,4.879,1.617,4.973,2.954c0.092,1.243-1.151,2.672-3.854,4.04L534.224,243.641z
M633.374,235.684c-0.126,1.213-0.218,2.425-0.374,3.606c-0.186,1.555-0.404,3.046-0.621,4.539c-0.188,1.305-0.404,2.61-0.654,3.884
c-0.279,1.679-0.558,3.326-0.901,4.973c-0.498,2.518-1.057,5.003-1.679,7.459c-0.342,1.399-0.745,2.767-1.149,4.134
c-0.436,1.617-0.902,3.202-1.399,4.817c-0.436,1.431-0.902,2.86-1.399,4.29c-0.248,0.745-0.498,1.491-0.777,2.237
c-0.436,1.305-0.932,2.579-1.431,3.854c-0.434,1.087-0.839,2.207-1.305,3.294c-0.312,0.777-0.622,1.523-0.964,2.269
c-1.523,3.574-3.138,7.086-4.911,10.568c-1.273,2.486-2.579,4.941-3.978,7.365c-0.092,0.188-0.216,0.374-0.31,0.56
c-1.181,2.021-2.393,4.01-3.636,5.968c-0.56,0.87-1.119,1.771-1.709,2.642c-0.778,1.181-1.585,2.363-2.393,3.512
c-0.902,1.307-1.803,2.58-2.767,3.854c-0.465,0.652-0.963,1.305-1.491,1.959c-1.181,1.585-2.393,3.138-3.668,4.661
c-0.216,0.28-0.434,0.528-0.652,0.808c-6.278,7.522-13.24,14.547-20.825,20.981c-0.154,0.124-0.342,0.216-0.528,0.31
c-0.03,0-0.062,0.032-0.092,0.032c-0.218,0.092-0.404,0.124-0.622,0.124c-0.062,0-0.124,0-0.156,0
c-0.216-0.032-0.404-0.062-0.59-0.124c-0.621-0.218-1.057-0.778-1.213-1.399c0-0.032-0.03-0.062-0.03-0.094l-3.264-20.607
c-0.092-0.622,0.124-1.275,0.56-1.709c0.31-0.312,0.59-0.622,0.87-0.933c2.486-2.455,4.879-4.973,7.148-7.584
c0.154-0.186,0.31-0.342,0.434-0.497c15.634-17.997,26.482-39.226,31.951-62.474c0.218-0.84,0.374-1.679,0.56-2.549
c0.248-1.057,0.497-2.113,0.684-3.202c0.216-1.057,0.404-2.113,0.59-3.2c0.124-0.684,0.248-1.399,0.372-2.113
c0.032-0.218,0.062-0.466,0.094-0.684c0.03-0.28,0.092-0.56,0.154-0.87c0.032-0.31,0.156-0.591,0.342-0.839
c0.186-0.25,0.404-0.466,0.684-0.59l18.555-9.45c0.622-0.342,1.399-0.28,1.989,0.094c0.59,0.404,0.933,1.087,0.901,1.801
C633.653,232.825,633.498,234.255,633.374,235.684z"/>
</g>
<g>
<path fill="#1B1B1B" d="M550.003,256.849c-1.633,3.669-3.343,6.769-6.119,8.564c-0.899,0.571-2.853-0.083-2.69-1.876
c0.081-2.122,0.814-3.998,0-6.443c-2.12,1.222-4.162,1.874-6.2,2.119c-1.629-2.038-3.752-4.65-4.239-6.771
c-0.328-1.222-0.166-1.793,1.954-2.445c0.818-0.245,0.895-2.203-0.162-2.612c-3.591-1.548-5.139-4.241-6.849-7.013
c-1.961-3.019-4.08-5.059-6.771-5.63c-1.629-5.628-3.347-11.255-5.142-16.886c-5.629-17.945-12.396-36.136-21.696-54.896
c7.752,22.676,13.867,44.864,17.704,66.317c-11.504-24.389-23.414-48.208-38.342-67.786c9.871,18.353,19.248,37.115,24.309,59.71
c0.243,0.896-0.409,1.224-1.062,0.652c-2.853-2.202-4.239-3.507-6.771-7.831c-1.22-1.957-3.181-5.953-5.138-7.095
c1.795,3.588,2.938,8.646,0.081,10.929c-4.08,3.345-15.334-6.688-20.148-6.607c3.345,1.388,6.607,5.302,5.466,7.178
c-3.181,5.059-12.809,1.469-19.986,2.938c4.731,1.305,7.503,2.938,7.503,6.117c-0.161,4.161-9.707,5.302-15.008,8.972
c3.507-0.896,8.238-0.162,9.136,2.123c2.61,6.198-7.343,7.26-11.989,10.931c4.97-0.816,10.113,0.081,10.929,3.834
c0.898,3.752-3.1,5.872-8.076,8.157c4.976-0.733,8.645,0.243,9.464,3.508c0.651,2.693-2.287,4.324-5.383,6.2
c3.912,0.326,8.317,0.245,8.645,3.343c0.324,3.181-4.408,4.407-8.074,5.221c4.891,1.467,12.072,2.366,11.581,6.85
c-0.324,3.671-5.794,3.752-10.442,3.671c5.383,2.039,15.905,6.445,13.543,9.707c-1.714,2.285-6.117,0.245-10.035-0.407
c4.814,3.1,8.812,8.483,6.445,10.605c-3.1,2.855-11.419-3.1-14.598-7.505c-6.445-8.974-14.602-29.446-5.304-32.629
c2.691-0.897,5.383,1.469,6.935,4.895c-6.528-28.55-34.422-45.191-74.965-58.488c-8.24-2.691-16.723-6.198-23.083-11.991
c5.136,6.769,14.027,13.703,22.103,19.66c9.057,6.524,22.103,18.435,20.148,26.753c-2.284,9.547-12.805,16.479-27.487,26.269
c16.15-7.995,29.201-11.748,37.85-2.45c9.049,9.871-1.39,25.697-13.792,47.883c13.054-16.722,22.111-25.857,36.626-24.062
c9.628,1.222,16.641,12.398,19.662,21.617c1.306,4.078-2.774,6.279-6.609,5.872c-5.955-0.571-6.848,0.162-10.277,0.734
c3.997,0.409,5.462,2.119,5.304,4.407c-0.413,6.117-11.829,1.55-17.212,5.219c3.748,0.083,5.953,2.04,5.383,4.243
c-1.635,6.771-10.037,2.897-15.5,7.139c1.351-0.253,2.721-1.763,3.719,0.237h53.564c2.343-2,4.432-1.315,6.178,0.008
c3.102-3.59,6.04-8.057,9.464-6.098c4.484-2.286,4.567-11.29,9.134-8.68c4.242-5.057-1.058-14.697,4.324-12.17
c2.285-7.095-7.343-13.751-1.058-14.812c-1.224-5.872-10.441-12.465-5.142-13.034c-1.957-5.383-10.927-12.799-5.464-13.615
c-4.156-5.709-8.566-11.579-4.731-13.127c-4.567-5.63-7.667-10.278-3.752-9.869c-3.017-10.767-2.039-12.642,0.328-11.663
c-0.981-7.586,2.938-11.583,4.403-6.771c3.428-1.714,7.588-6.605,9.626-2.202c6.119-0.653,11.176-0.734,8.728,3.345
c4.486,0.569,7.505,2.691,7.991,5.955c0.328,2.774-1.629,4.731-5.053,6.607c6.196,6.036,11.253,14.519,11.829,23.167
c0.818,13.131,1.957,22.105,8.072,27.164c1.637,1.384,3.59,2.446,5.957,3.179c-2.366-2.936-3.59-7.341-2.042-12.153
c-1.953-3.1-3.096-11.993-3.914-22.516c-0.243-3.26-0.487-6.767-0.73-10.195l0.73,0.49c4.239,3.019,9.053,6.607,14.033,8.891
c9.057,4.243,10.443,15.745,8.566,30.1c8.643-6.85,15.006-17.455,13.129-26.429C550.412,267.535,550.902,263.946,550.003,256.849z"
/>
<rect x="122.717" y="344.548" fill="#1B1B1B" width="672.642" height="120.201"/>
<text transform="matrix(1 0 0 1 153.4209 434.0039)"><tspan x="0" y="0" fill="#FFFFFF" font-family=" 'Montserrat', sans-serif" font-size="74.0815px">CLASS </tspan><tspan x="265.059" y="0" fill="#FFFFFF" font-family=" 'Montserrat', sans-serif" font-weight="700" font-size="74.0815px">DRAKON</tspan></text>
</g>
</svg>
