<?xml version="1.0" encoding="utf-8"?>
<!-- Generator: Adobe Illustrator 19.1.0, SVG Export Plug-In . SVG Version: 6.00 Build 0)  -->
<svg version="1.1" id="Layer_1" xmlns="http://www.w3.org/2000/svg" xmlns:xlink="http://www.w3.org/1999/xlink" x="0px" y="0px"
	 viewBox="356 -132.75 912 464.75" enable-background="new 356 -132.75 912 464.75" xml:space="preserve">
<rect x="416" y="145" fill="#FFFFFF" width="794" height="124.25"/>
<g>
	<g>
		<path fill="#1B1B1B" d="M927.114,31.283c-1.989,4.47-4.073,8.246-7.454,10.433c-1.096,0.696-3.475-0.101-3.277-2.285
			c0.099-2.584,0.992-4.87,0-7.849c-2.582,1.488-5.07,2.283-7.553,2.582c-1.985-2.483-4.571-5.665-5.164-8.249
			c-0.4-1.489-0.202-2.184,2.38-2.979c0.997-0.299,1.091-2.683-0.197-3.182c-4.374-1.886-6.26-5.166-8.343-8.542
			c-2.389-3.678-4.971-6.163-8.249-6.859c-1.985-6.856-4.077-13.711-6.264-20.57c-6.857-21.86-15.101-44.02-26.429-66.873
			c9.443,27.624,16.892,54.653,21.567,80.786c-14.014-29.71-28.522-58.726-46.707-82.575c12.024,22.357,23.448,45.212,29.613,72.737
			c0.296,1.091-0.498,1.491-1.293,0.795c-3.475-2.683-5.163-4.272-8.249-9.539c-1.486-2.384-3.875-7.252-6.259-8.644
			c2.187,4.371,3.579,10.532,0.099,13.313c-4.971,4.075-18.679-8.147-24.543-8.049c4.075,1.691,8.049,6.459,6.659,8.745
			c-3.875,6.163-15.604,1.789-24.346,3.579c5.763,1.59,9.14,3.579,9.14,7.452c-0.196,5.069-11.825,6.459-18.282,10.929
			c4.272-1.091,10.036-0.198,11.129,2.586c3.179,7.55-8.945,8.843-14.604,13.316c6.055-0.994,12.319,0.099,13.313,4.67
			c1.094,4.571-3.776,7.153-9.838,9.936c6.062-0.893,10.532,0.297,11.529,4.273c0.793,3.28-2.786,5.267-6.558,7.552
			c4.766,0.397,10.132,0.299,10.532,4.073c0.395,3.875-5.37,5.368-9.836,6.36c5.958,1.787,14.705,2.883,14.108,8.345
			c-0.395,4.472-7.059,4.571-12.721,4.472c6.558,2.483,19.375,7.851,16.497,11.825c-2.088,2.784-7.452,0.298-12.225-0.496
			c5.864,3.776,10.734,10.334,7.851,12.918c-3.776,3.478-13.911-3.776-17.783-9.142c-7.851-10.932-17.788-35.87-6.462-39.748
			c3.278-1.093,6.558,1.789,8.448,5.963c-7.952-34.779-41.932-55.05-91.32-71.249c-10.038-3.278-20.372-7.55-28.12-14.607
			c6.257,8.246,17.087,16.692,26.925,23.949c11.033,7.948,26.925,22.458,24.544,32.59c-2.782,11.63-15.599,20.074-33.483,32
			c19.674-9.74,35.571-14.311,46.108-2.984c11.023,12.025-1.693,31.304-16.801,58.33c15.902-20.37,26.935-31.499,44.617-29.312
			c11.729,1.489,20.271,15.103,23.951,26.333c1.592,4.968-3.379,7.649-8.051,7.153c-7.254-0.696-8.343,0.198-12.519,0.894
			c4.869,0.498,6.654,2.582,6.462,5.368c-0.503,7.452-14.409,1.888-20.967,6.358c4.566,0.101,7.251,2.485,6.558,5.169
			c-1.992,8.249-12.227,4.869-18.881,10.037c1.646-0.308,3.314-1.371,4.53,1.629h65.25c2.854-3,5.398-2.942,7.525-1.33
			c3.779-4.373,7.357-10.485,11.529-8.098c5.462-2.784,5.563-14.088,11.126-10.908c5.168-6.161-1.289-18.07,5.267-14.993
			c2.784-8.644-8.945-16.835-1.289-18.128c-1.491-7.153-12.718-15.226-6.264-15.919c-2.384-6.558-13.311-15.612-6.656-16.607
			c-5.063-6.955-10.435-14.116-5.763-16.002c-5.563-6.859-9.34-12.526-4.571-12.027c-3.675-13.116-2.483-15.403,0.4-14.211
			c-1.195-9.241,3.578-14.111,5.363-8.249c4.176-2.088,9.244-8.047,11.726-2.683c7.454-0.795,13.615-0.894,10.633,4.075
			c5.465,0.693,9.142,3.277,9.735,7.254c0.4,3.379-1.985,5.763-6.156,8.049c7.548,7.352,13.708,17.687,14.409,28.221
			c0.997,15.996,2.384,26.928,9.833,33.091c1.994,1.686,4.374,2.979,7.256,3.873c-2.883-3.577-4.374-8.942-2.488-14.804
			c-2.379-3.776-3.771-14.609-4.768-27.429c-0.297-3.971-0.593-8.244-0.889-12.42l0.889,0.597
			c5.163,3.678,11.028,8.049,17.094,10.83c11.033,5.169,12.721,19.18,10.435,36.667c10.529-8.345,18.28-21.263,15.994-32.195
			C927.612,44.3,928.209,39.929,927.114,31.283z"/>
	</g>
	<g>
		<rect x="406.606" y="138.116" fill="#1B1B1B" width="819.394" height="146.426"/>
	</g>
	<g>
		<path fill="#FFFFFF" d="M481.549,237.431c3.669,0,6.828-0.616,9.476-1.851c2.646-1.232,5.414-3.203,8.302-5.91l6.858,7.039
			c-6.677,7.4-14.786,11.101-24.32,11.101c-9.536,0-17.449-3.069-23.734-9.205c-6.288-6.136-9.431-13.899-9.431-23.284
			c0-9.385,3.204-17.204,9.611-23.462c6.407-6.256,14.498-9.385,24.275-9.385c9.776,0,17.944,3.609,24.502,10.828l-6.768,7.401
			c-3.01-2.887-5.852-4.903-8.528-6.045c-2.678-1.143-5.821-1.715-9.431-1.715c-6.377,0-11.731,2.062-16.064,6.183
			c-4.332,4.121-6.497,9.385-6.497,15.793c0,6.407,2.15,11.763,6.453,16.064C470.554,235.28,475.652,237.431,481.549,237.431z"/>
		<path fill="#FFFFFF" d="M519.181,247.087v-63.081h10.649v52.973h28.787v10.107H519.181z"/>
		<path fill="#FFFFFF" d="M579.193,232.737l-6.317,14.35h-11.371l27.795-63.081h11.371l27.796,63.081h-11.371l-6.317-14.35H579.193z
			 M606.446,222.901l-11.461-25.989l-11.461,25.989H606.446z"/>
		<path fill="#FFFFFF" d="M656.305,192.309c-3.099,0-5.64,0.631-7.625,1.896c-1.986,1.263-2.978,3.174-2.978,5.73
			c0,2.558,0.992,4.512,2.978,5.865c1.985,1.354,6.211,2.813,12.679,4.378c6.466,1.564,11.34,3.76,14.619,6.587
			c3.279,2.829,4.918,6.994,4.918,12.499c0,5.505-2.075,9.972-6.226,13.401c-4.151,3.429-9.597,5.145-16.335,5.145
			c-9.867,0-18.621-3.398-26.261-10.198l6.678-8.032c6.376,5.536,12.995,8.303,19.854,8.303c3.429,0,6.151-0.736,8.167-2.211
			c2.015-1.474,3.023-3.429,3.023-5.865c0-2.438-0.947-4.332-2.843-5.687c-1.895-1.354-5.159-2.585-9.791-3.699
			c-4.633-1.113-8.154-2.136-10.559-3.069c-2.408-0.932-4.543-2.151-6.407-3.656c-3.731-2.827-5.596-7.159-5.596-12.995
			c0-5.834,2.121-10.332,6.363-13.49c4.241-3.16,9.49-4.738,15.748-4.738c4.03,0,8.031,0.662,12.002,1.985
			c3.97,1.324,7.4,3.189,10.288,5.596l-5.685,8.032c-1.866-1.685-4.392-3.069-7.581-4.151
			C662.546,192.849,659.403,192.309,656.305,192.309z"/>
		<path fill="#FFFFFF" d="M713.157,192.309c-3.099,0-5.64,0.631-7.625,1.896c-1.986,1.263-2.978,3.174-2.978,5.73
			c0,2.558,0.992,4.512,2.978,5.865c1.985,1.354,6.211,2.813,12.679,4.378c6.466,1.564,11.34,3.76,14.619,6.587
			c3.279,2.829,4.918,6.994,4.918,12.499c0,5.505-2.075,9.972-6.226,13.401c-4.151,3.429-9.597,5.145-16.335,5.145
			c-9.867,0-18.621-3.398-26.261-10.198l6.678-8.032c6.376,5.536,12.995,8.303,19.854,8.303c3.429,0,6.151-0.736,8.167-2.211
			c2.015-1.474,3.023-3.429,3.023-5.865c0-2.438-0.947-4.332-2.843-5.687c-1.895-1.354-5.159-2.585-9.791-3.699
			c-4.633-1.113-8.154-2.136-10.559-3.069c-2.408-0.932-4.543-2.151-6.407-3.656c-3.731-2.827-5.596-7.159-5.596-12.995
			c0-5.834,2.121-10.332,6.363-13.49c4.242-3.16,9.49-4.738,15.748-4.738c4.03,0,8.031,0.662,12.002,1.985
			c3.97,1.324,7.4,3.189,10.288,5.596l-5.685,8.032c-1.866-1.685-4.392-3.069-7.581-4.151
			C719.398,192.849,716.255,192.309,713.157,192.309z"/>
		<path fill="#FFFFFF" d="M822.847,192.263c6.015,5.505,9.024,13.163,9.024,22.968c0,9.807-2.933,17.568-8.799,23.282
			c-5.866,5.716-14.816,8.574-26.848,8.574h-21.568v-63.081h22.291C808.196,184.006,816.83,186.758,822.847,192.263z
			 M812.514,229.759c3.458-3.247,5.189-7.97,5.189-14.168c0-6.196-1.731-10.964-5.189-14.304c-3.46-3.338-8.769-5.009-15.928-5.009
			h-7.852v38.354h8.934C804.106,234.633,809.054,233.008,812.514,229.759z"/>
		<path fill="#FFFFFF" d="M895.223,204.943c0,10.108-4.002,16.635-12.003,19.582l15.974,22.562h-17.327l-13.988-20.124h-9.746
			v20.124h-14.078v-63.081h23.915c9.806,0,16.799,1.655,20.981,4.963C893.132,192.28,895.223,197.603,895.223,204.943z
			 M878.257,212.433c1.744-1.564,2.617-4.045,2.617-7.445c0-3.398-0.902-5.731-2.707-6.994c-1.806-1.264-4.964-1.896-9.476-1.896
			h-10.559v18.681h10.289C873.232,214.78,876.511,213.997,878.257,212.433z"/>
		<path fill="#FFFFFF" d="M954.603,247.087l-5.866-13.628h-26.441l-5.866,13.628h-14.98l27.254-63.081h13.627l27.254,63.081H954.603
			z M935.561,202.777l-7.941,18.319h15.793L935.561,202.777z"/>
		<path fill="#FFFFFF" d="M976.892,184.006h14.079v25.9l23.824-25.9h17.417l-25.089,27.885c2.167,3.009,6.167,8.618,12.003,16.83
			c5.834,8.214,10.197,14.336,13.086,18.366h-16.426l-18.5-24.909l-6.316,7.04v17.868h-14.079V184.006z"/>
		<path fill="#FFFFFF" d="M1090.781,238.378c-6.378,6.227-14.23,9.341-23.555,9.341c-9.325,0-17.177-3.114-23.553-9.341
			c-6.378-6.227-9.565-13.972-9.565-23.238c0-9.264,3.187-17.011,9.565-23.238c6.376-6.227,14.228-9.341,23.553-9.341
			c9.325,0,17.177,3.114,23.555,9.341c6.376,6.227,9.565,13.974,9.565,23.238C1100.346,224.405,1097.157,232.151,1090.781,238.378z
			 M1085.997,215.185c0-5.623-1.805-10.423-5.414-14.393c-3.609-3.971-8.047-5.956-13.31-5.956c-5.266,0-9.701,1.985-13.312,5.956
			c-3.609,3.97-5.414,8.769-5.414,14.393c0,5.627,1.805,10.409,5.414,14.35c3.611,3.94,8.046,5.911,13.312,5.911
			c5.263,0,9.701-1.971,13.31-5.911S1085.997,220.811,1085.997,215.185z"/>
		<path fill="#FFFFFF" d="M1156.387,184.006h14.077v63.081h-14.077l-30.052-39.528v39.528h-14.079v-63.081h13.176l30.954,40.61
			V184.006z"/>
	</g>
</g>
</svg>
