<?xml version="1.0" encoding="utf-8"?>
<!-- Generator: Adobe Illustrator 19.1.0, SVG Export Plug-In . SVG Version: 6.00 Build 0)  -->
<svg version="1.1" id="Layer_1" xmlns="http://www.w3.org/2000/svg" xmlns:xlink="http://www.w3.org/1999/xlink" x="0px" y="0px"
	 viewBox="356 21.625 912 158.375" enable-background="new 356 21.625 912 158.375" xml:space="preserve">
<g>
	<g>
		<path fill="#CCCCCC" d="M852.577,146.306h-60.678c-2.787,0-5.057-2.269-5.057-5.057V95.74c0-2.79,2.269-5.057,5.057-5.057h60.678
			c2.787,0,5.057,2.267,5.057,5.057v45.509C857.634,144.036,855.365,146.306,852.577,146.306z M791.899,93.212
			c-1.395,0-2.528,1.136-2.528,2.528v45.509c0,1.394,1.133,2.528,2.528,2.528h60.678c1.395,0,2.528-1.134,2.528-2.528V95.74
			c0-1.393-1.133-2.528-2.528-2.528H791.899z"/>
		<path fill="#CCCCCC" d="M833.615,151.362h-22.754c-0.699,0-1.264-0.565-1.264-1.264v-2.528c0-3.518,2.363-3.792,3.086-3.792
			h17.698c2.081,0,4.499,1.657,4.499,3.792v2.528C834.879,150.797,834.314,151.362,833.615,151.362z M812.125,148.834h20.226v-1.264
			c0-0.486-1.077-1.264-1.97-1.264h-17.698c-0.21,0-0.558,0-0.558,1.264L812.125,148.834L812.125,148.834z"/>
		<path fill="#CCCCCC" d="M851.313,136.192h-58.15c-0.699,0-1.264-0.565-1.264-1.264V97.004c0-0.699,0.565-1.264,1.264-1.264h58.15
			c0.699,0,1.264,0.565,1.264,1.264v37.924C852.577,135.627,852.012,136.192,851.313,136.192z M794.427,133.664h55.622V98.269
			h-55.622V133.664z"/>
		<path fill="#CCCCCC" d="M796.955,141.249h-2.528c-0.699,0-1.264-0.565-1.264-1.264s0.565-1.264,1.264-1.264h2.528
			c0.699,0,1.264,0.565,1.264,1.264C798.22,140.684,797.654,141.249,796.955,141.249z"/>
		<path fill="#CCCCCC" d="M839.936,141.249h-2.528c-0.699,0-1.264-0.565-1.264-1.264s0.565-1.264,1.264-1.264h2.528
			c0.699,0,1.264,0.565,1.264,1.264S840.635,141.249,839.936,141.249z"/>
		<path fill="#CCCCCC" d="M850.049,141.249h-2.528c-0.699,0-1.264-0.565-1.264-1.264s0.565-1.264,1.264-1.264h2.528
			c0.699,0,1.264,0.565,1.264,1.264C851.313,140.684,850.748,141.249,850.049,141.249z"/>
	</g>
	<g>
		<path fill="#CCCCCC" d="M489.913,149.77h-45.516c-4.861,0-5.32-1.642-5.32-5.989v-38.329c0-0.662,0.536-1.198,1.198-1.198h55.098
			c0.662,0,1.198,0.536,1.198,1.198v38.329C496.571,148.768,494.023,149.77,489.913,149.77z M441.473,106.65v37.131
			c0,3.593,0,3.593,2.924,3.593h45.516c3.586,0,4.262-0.571,4.262-3.593V106.65H441.473z"/>
		<path fill="#CCCCCC" d="M449.188,144.978c-1.981,0-3.593-1.612-3.593-3.593s1.612-3.593,3.593-3.593
			c1.982,0,3.593,1.612,3.593,3.593C452.782,143.366,451.17,144.978,449.188,144.978z M449.188,140.187
			c-0.66,0-1.198,0.537-1.198,1.198s0.538,1.198,1.198,1.198s1.198-0.537,1.198-1.198S449.848,140.187,449.188,140.187z"/>
		<path fill="#CCCCCC" d="M449.188,130.605c-1.981,0-3.593-1.612-3.593-3.593c0-1.981,1.612-3.593,3.593-3.593
			c1.982,0,3.593,1.612,3.593,3.593C452.781,128.993,451.17,130.605,449.188,130.605z M449.188,125.814
			c-0.66,0-1.198,0.537-1.198,1.198s0.538,1.198,1.198,1.198s1.198-0.537,1.198-1.198S449.848,125.814,449.188,125.814z"/>
		<path fill="#CCCCCC" d="M494.175,135.396h-52.702c-0.662,0-1.198-0.536-1.198-1.198c0-0.662,0.536-1.198,1.198-1.198h52.702
			c0.662,0,1.198,0.536,1.198,1.198C495.373,134.86,494.837,135.396,494.175,135.396z"/>
		<path fill="#CCCCCC" d="M494.175,121.023h-52.702c-0.662,0-1.198-0.536-1.198-1.198c0-0.662,0.536-1.198,1.198-1.198h52.702
			c0.662,0,1.198,0.536,1.198,1.198S494.837,121.023,494.175,121.023z"/>
		<path fill="#CCCCCC" d="M486.989,142.583h-11.978c-0.662,0-1.198-0.536-1.198-1.198c0-0.662,0.536-1.198,1.198-1.198h11.978
			c0.662,0,1.198,0.536,1.198,1.198C488.187,142.047,487.651,142.583,486.989,142.583z"/>
		<path fill="#CCCCCC" d="M486.989,128.21h-11.978c-0.662,0-1.198-0.536-1.198-1.198s0.536-1.198,1.198-1.198h11.978
			c0.662,0,1.198,0.536,1.198,1.198S487.651,128.21,486.989,128.21z"/>
		<path fill="#CCCCCC" d="M449.188,116.232c-1.981,0-3.593-1.612-3.593-3.593s1.612-3.593,3.593-3.593
			c1.982,0,3.593,1.612,3.593,3.593S451.17,116.232,449.188,116.232z M449.188,111.441c-0.66,0-1.198,0.537-1.198,1.198
			s0.538,1.198,1.198,1.198s1.198-0.537,1.198-1.198S449.848,111.441,449.188,111.441z"/>
		<path fill="#CCCCCC" d="M486.989,113.836h-11.978c-0.662,0-1.198-0.536-1.198-1.198s0.536-1.198,1.198-1.198h11.978
			c0.662,0,1.198,0.536,1.198,1.198S487.651,113.836,486.989,113.836z"/>
		<path fill="#CCCCCC" d="M494.704,106.65h-55.098c-0.461,0-0.88-0.264-1.078-0.678c-0.201-0.414-0.145-0.908,0.143-1.268
			l9.582-11.978c0.227-0.284,0.571-0.449,0.936-0.449h35.933c0.365,0,0.709,0.165,0.936,0.449l9.582,11.978
			c0.288,0.36,0.344,0.854,0.143,1.268C495.584,106.385,495.165,106.65,494.704,106.65z M442.098,104.254h50.115l-7.666-9.582
			h-34.783L442.098,104.254z"/>
	</g>
	<g>
		<path fill="#CCCCCC" d="M1164.42,153.065h-0.085c-11.017,0-19.648-8.965-19.648-20.41v-20.708c0-9.206,6.615-16.149,15.387-16.149
			h8.607c9.167,0,16.911,7.395,16.911,16.149v20.708C1185.592,143.719,1175.895,153.065,1164.42,153.065z M1160.074,98.525
			c-7.217,0-12.66,5.77-12.66,13.422v20.708c0,9.917,7.433,17.683,16.921,17.683h0.085c9.997,0,18.445-8.097,18.445-17.683v-20.708
			c0-7.15-6.628-13.422-14.184-13.422H1160.074z"/>
		<path fill="#CCCCCC" d="M1161.048,114.887h-13.635c-0.754,0-1.364-0.61-1.364-1.364s0.61-1.364,1.364-1.364h13.635
			c0.754,0,1.364,0.61,1.364,1.364S1161.802,114.887,1161.048,114.887z"/>
		<path fill="#CCCCCC" d="M1182.865,114.887h-13.635c-0.754,0-1.364-0.61-1.364-1.364s0.61-1.364,1.364-1.364h13.635
			c0.754,0,1.364,0.61,1.364,1.364S1183.618,114.887,1182.865,114.887z"/>
		<path fill="#CCCCCC" d="M1165.139,108.07c-0.754,0-1.364-0.61-1.364-1.364v-8.181c0-0.754,0.61-1.364,1.364-1.364
			s1.364,0.61,1.364,1.364v8.181C1166.503,107.46,1165.893,108.07,1165.139,108.07z"/>
		<path fill="#CCCCCC" d="M1167.866,120.341h-5.454c-0.754,0-1.364-0.61-1.364-1.364V108.07c0-0.754,0.61-1.364,1.364-1.364h5.454
			c0.754,0,1.364,0.61,1.364,1.364v10.908C1169.23,119.731,1168.62,120.341,1167.866,120.341z M1163.776,117.614h2.727v-8.181
			h-2.727V117.614z"/>
		<path fill="#CCCCCC" d="M1164.377,97.417c-0.754,0-1.363-0.61-1.363-1.364c0-0.865-0.772-1.298-2.407-2.012
			c-1.478-0.645-3.499-1.526-3.499-3.698c0-0.754,0.61-1.364,1.364-1.364s1.364,0.61,1.364,1.364c0,0.386,1.031,0.836,1.861,1.197
			c1.611,0.703,4.045,1.764,4.045,4.512C1165.741,96.807,1165.131,97.417,1164.377,97.417z"/>
	</g>
	<line fill="#CCCCCC" x1="516.314" y1="119.625" x2="763.314" y2="119.625"/>
	<line fill="#CCCCCC" x1="876.314" y1="118.625" x2="1123.314" y2="118.625"/>
</g>
</svg>
