<?xml version="1.0" encoding="utf-8"?>
<!-- Generator: Adobe Illustrator 19.1.0, SVG Export Plug-In . SVG Version: 6.00 Build 0)  -->
<svg version="1.1" id="Layer_1" xmlns="http://www.w3.org/2000/svg" xmlns:xlink="http://www.w3.org/1999/xlink" x="0px" y="0px"
	 viewBox="0 0 144 144" enable-background="new 0 0 144 144" xml:space="preserve">
<path fill="#CCCCCC" d="M136.231,70.072c-0.027-0.037-0.063-0.045-0.091-0.082c-0.063-0.054-0.117-0.118-0.19-0.154
	c-0.118-0.072-0.244-0.118-0.38-0.136l-0.751-0.118c-0.009-1.556-0.082-3.104-0.199-4.661l0.778-0.181
	c0.534-0.127,0.887-0.625,0.833-1.168c-0.389-4.09-1.186-8.09-2.344-11.963c-0.525-1.774-1.113-3.539-1.801-5.285
	c-0.199-0.507-0.742-0.778-1.276-0.661l-0.76,0.19c-0.588-1.43-1.24-2.832-1.946-4.226l0.624-0.453
	c0.443-0.326,0.579-0.923,0.317-1.403c-0.217-0.416-0.461-0.833-0.688-1.258l-0.009,0.009c-1.204-2.145-2.534-4.253-4.018-6.29
	c-1.764-2.443-3.683-4.696-5.719-6.805c-0.371-0.389-0.977-0.443-1.421-0.127l-0.625,0.462c-1.113-1.104-2.262-2.145-3.43-3.149
	l0.416-0.697c0.29-0.461,0.19-1.068-0.226-1.412c-2.941-2.425-6.072-4.552-9.339-6.371l0.009-0.009
	c-0.117-0.063-0.235-0.118-0.353-0.181c-0.625-0.344-1.249-0.679-1.883-0.996c-0.434-0.226-0.869-0.443-1.312-0.651
	c-0.28-0.136-0.57-0.271-0.859-0.407c-0.453-0.199-0.905-0.434-1.367-0.633c-0.253-0.108-0.524-0.118-0.769-0.027
	c-0.253,0.073-0.48,0.227-0.615,0.461l-0.407,0.67c-1.43-0.597-2.887-1.122-4.371-1.602l0.126-0.769
	c0.045-0.271-0.018-0.543-0.163-0.76c-0.136-0.217-0.344-0.389-0.607-0.471c-0.461-0.145-0.923-0.262-1.384-0.389v0.009
	c-2.353-0.67-4.778-1.213-7.258-1.611c-2.977-0.47-5.928-0.714-8.851-0.769c-0.543-0.009-1.013,0.389-1.095,0.923l-0.127,0.76
	c-1.566,0-3.113,0.082-4.66,0.19l-0.181-0.778c-0.126-0.525-0.625-0.878-1.167-0.833c-3.801,0.362-7.52,1.077-11.131,2.109V8.345
	C53.5,8.924,51.464,9.603,49.445,10.4c-0.498,0.199-0.787,0.742-0.651,1.267l0.181,0.76c-1.439,0.606-2.85,1.267-4.226,1.964
	l-0.452-0.615c-0.154-0.209-0.362-0.344-0.597-0.407c-0.263-0.072-0.552-0.054-0.806,0.082c-2.579,1.366-5.104,2.923-7.538,4.696
	c-0.29,0.208-0.543,0.435-0.823,0.652c-0.688,0.506-1.358,1.041-2.027,1.583c-0.425,0.344-0.851,0.697-1.267,1.059
	c-0.76,0.66-1.52,1.339-2.253,2.036c-0.136,0.127-0.29,0.253-0.435,0.389c-0.389,0.371-0.443,0.986-0.118,1.421l0.453,0.625
	c-0.552,0.543-1.077,1.104-1.592,1.656c0,0.009-0.009,0.027-0.019,0.036c-0.534,0.57-1.041,1.158-1.547,1.738l-0.661-0.398l0,0
	l-0.027-0.018c-0.462-0.28-1.068-0.181-1.412,0.235c-3.176,3.855-5.837,8.027-7.981,12.416c-0.443,0.887-0.869,1.792-1.267,2.706
	c-0.217,0.498-0.036,1.077,0.435,1.366l0.643,0.398c-0.018,0.054-0.045,0.118-0.073,0.181c-0.561,1.375-1.077,2.778-1.538,4.199
	l-0.751-0.126c-0.534-0.082-1.05,0.244-1.213,0.769c-1.729,5.674-2.66,11.565-2.769,17.502c-0.009,0.407,0.217,0.778,0.552,0.968
	c0.118,0.072,0.244,0.118,0.38,0.136l0.733,0.118c0,1.566,0.082,3.122,0.199,4.661l-0.751,0.172
	c-0.263,0.072-0.489,0.226-0.634,0.443c-0.154,0.208-0.226,0.461-0.199,0.733c0.172,1.864,0.443,3.692,0.778,5.511
	c0.733,3.964,1.837,7.892,3.349,11.719c0.154,0.38,0.498,0.634,0.887,0.679c0.136,0.018,0.272,0.018,0.407-0.009l0.706-0.172
	c0.425,1.013,0.887,2.009,1.367,2.986c0.199,0.416,0.389,0.833,0.597,1.249l-0.597,0.435c-0.443,0.316-0.579,0.914-0.317,1.384
	c0,0.009,0,0.009,0,0.009v0.009c0.317,0.597,0.651,1.186,0.986,1.765c0.027,0.054,0.045,0.099,0.082,0.145
	c0.081,0.145,0.163,0.29,0.253,0.425c1.031,1.765,2.144,3.502,3.375,5.194c0.1,0.126,0.208,0.253,0.298,0.38
	c0.76,1.032,1.548,2.036,2.371,3.023c0.063,0.082,0.136,0.163,0.209,0.244c0.914,1.086,1.864,2.136,2.85,3.159
	c0.371,0.398,0.986,0.452,1.421,0.126l0.597-0.435c1.104,1.095,2.254,2.145,3.43,3.159l-0.398,0.651
	c-0.29,0.461-0.181,1.068,0.235,1.412c2.1,1.738,4.299,3.303,6.57,4.733c2.706,1.71,5.566,3.24,8.552,4.543
	c0.498,0.208,1.086,0.027,1.366-0.435l0.389-0.633c0.009,0,0.018,0,0.018,0c1.43,0.588,2.887,1.122,4.362,1.602l-0.108,0.724
	c-0.091,0.543,0.235,1.059,0.751,1.213l0.018,0.009l0,0c2.796,0.851,5.683,1.529,8.651,2c2.977,0.48,5.927,0.714,8.85,0.769
	c0.543,0.009,1.014-0.38,1.095-0.914l0.118-0.733c1.565-0.009,3.122-0.082,4.66-0.199l0.172,0.724
	c0.036,0.136,0.091,0.262,0.172,0.371c0.209,0.326,0.597,0.534,1.005,0.488c4.308-0.407,8.507-1.267,12.561-2.515
	c0.163-0.055,0.326-0.1,0.488-0.154c0.136-0.037,0.272-0.091,0.398-0.127c1.276-0.416,2.534-0.859,3.783-1.348
	c0.127-0.054,0.244-0.126,0.344-0.217c0.28-0.262,0.416-0.67,0.326-1.059l-0.172-0.724c0.407-0.172,0.805-0.353,1.213-0.534
	c1.014-0.452,2.027-0.923,3.023-1.43l0.434,0.588c0,0.009,0.009,0.009,0.009,0.018c0.316,0.443,0.914,0.579,1.394,0.316
	c5.239-2.787,10.072-6.298,14.344-10.416c0.389-0.38,0.443-0.986,0.117-1.421l-0.443-0.616c1.104-1.113,2.154-2.262,3.159-3.438
	l0.661,0.398c0.118,0.082,0.244,0.126,0.371,0.145c0.38,0.073,0.778-0.054,1.041-0.371c0.471-0.57,0.923-1.14,1.367-1.719l0,0
	c0.126-0.163,0.235-0.326,0.353-0.48c2.987-3.946,5.539-8.272,7.557-12.914c0.217-0.498,0.027-1.077-0.434-1.357l-0.027-0.018l0,0
	l-0.633-0.389c0.488-1.176,0.914-2.362,1.321-3.565c0.091-0.272,0.199-0.543,0.281-0.815l0.76,0.118
	c0.534,0.081,1.059-0.245,1.213-0.76c0.851-2.796,1.538-5.683,2.009-8.651c0.47-2.977,0.706-5.936,0.76-8.86
	C136.502,70.525,136.403,70.271,136.231,70.072z M90.892,24.173c0.163-0.126,0.389-0.163,0.579-0.082
	c0.063,0.027,0.127,0.054,0.181,0.073c0.923,0.38,1.819,0.787,2.715,1.221l0,0c0.272,0.136,0.543,0.253,0.805,0.389
	c9.692,4.941,17.366,12.85,22.027,22.552c0.335,0.697,0.651,1.403,0.95,2.109c0.082,0.199,0.172,0.389,0.253,0.588
	c0.018,0.045,0.027,0.091,0.027,0.136c0.009,0.027,0.009,0.054,0.018,0.082c0,0.054-0.009,0.108-0.027,0.163
	c-0.009,0.018-0.018,0.036-0.027,0.054c-0.018,0.045-0.036,0.1-0.073,0.145c-0.063,0.082-0.145,0.145-0.244,0.181c0,0,0,0-0.009,0
	c-0.091,0.036-0.19,0.045-0.29,0.027l-5.991-0.95c-0.181-0.018-0.344-0.145-0.425-0.308c-4.136-8.353-10.697-14.986-19.013-19.222
	c-0.127-0.072-0.263-0.136-0.389-0.181c-0.172-0.091-0.299-0.253-0.326-0.443l-0.95-5.991C90.648,24.508,90.738,24.3,90.892,24.173z
	 M35.093,38.027c0.027-0.072,0.037-0.126,0.082-0.181c0.036-0.045,0.082-0.091,0.118-0.136c0.625-0.733,1.276-1.43,1.937-2.127
	c7.692-8.036,17.819-13.194,28.814-14.705c0.38-0.045,0.76-0.1,1.14-0.145c0.652-0.072,1.294-0.145,1.946-0.19
	c0.208-0.009,0.407,0.082,0.524,0.262c0.055,0.082,0.082,0.172,0.091,0.263c0,0.027-0.009,0.054-0.009,0.082
	c-0.009,0.081-0.009,0.163-0.054,0.235l-1.059,2.091l-0.869,1.693l0,0l-0.824,1.62c-0.081,0.172-0.244,0.28-0.425,0.308
	c-9.248,1.366-17.9,5.774-24.479,12.479c-0.108,0.109-0.253,0.181-0.407,0.181c-0.037,0-0.063-0.009-0.091-0.018l-1.792-0.281l0,0
	l-4.208-0.67c-0.208-0.027-0.38-0.172-0.453-0.371C35.03,38.29,35.048,38.145,35.093,38.027z M34.686,89.981
	c-0.009,0.063-0.018,0.136-0.045,0.199c0,0-0.009,0-0.009,0.009l-0.425,0.841l-2.325,4.552c-0.09,0.19-0.281,0.308-0.489,0.317
	h-0.027c-0.199,0-0.389-0.1-0.489-0.271c-0.57-0.914-1.095-1.846-1.602-2.787c-0.082-0.163-0.172-0.326-0.253-0.498
	c-0.425-0.823-0.833-1.656-1.213-2.507c-0.063-0.136-0.127-0.263-0.181-0.398c-0.425-0.968-0.823-1.946-1.176-2.932
	c-0.054-0.136-0.09-0.262-0.136-0.398c-0.308-0.851-0.579-1.719-0.841-2.588c-0.063-0.217-0.127-0.425-0.181-0.643
	c-0.561-2.018-0.995-4.072-1.294-6.144c-0.027-0.163-0.045-0.326-0.063-0.489c-0.136-0.968-0.235-1.927-0.308-2.905
	c-0.009-0.09-0.018-0.181-0.018-0.262c-0.072-1.104-0.118-2.217-0.118-3.33c0-0.018,0-0.045,0-0.072
	c0-1.104,0.045-2.208,0.127-3.312c0.009-0.199,0.018-0.398,0.036-0.597c0.036-0.453,0.082-0.905,0.136-1.367
	c0.027-0.271,0.063-0.561,0.1-0.841c0.054-0.425,0.108-0.841,0.172-1.267c0.045-0.308,0.1-0.615,0.154-0.923
	c0.072-0.425,0.145-0.842,0.235-1.267c0.045-0.226,0.1-0.443,0.145-0.67c0.1-0.471,0.199-0.941,0.317-1.421
	c0.045-0.199,0.208-0.362,0.407-0.416c0.199-0.054,0.416,0,0.561,0.145l4.289,4.29c0.063,0.063,0.109,0.145,0.136,0.227
	c0.027,0.09,0.037,0.181,0.019,0.272c-0.009,0.09-0.019,0.181-0.037,0.271c-0.009,0.055-0.018,0.118-0.027,0.172
	c-0.027,0.163-0.045,0.326-0.072,0.488c-0.045,0.344-0.1,0.688-0.145,1.041c-0.036,0.335-0.072,0.679-0.108,1.023
	c-0.018,0.19-0.036,0.38-0.055,0.579c-0.108,1.231-0.163,2.471-0.163,3.702c0,5.574,1.104,11.04,3.231,16.217
	c0.099,0.235,0.199,0.47,0.298,0.706c0.145,0.344,0.299,0.679,0.453,1.005c0.29,0.651,0.597,1.294,0.932,1.927l0,0
	c0.037,0.072,0.055,0.163,0.064,0.245C34.695,89.927,34.686,89.954,34.686,89.981z M84.911,117.175l-0.009,0.027
	c-0.063,0.19-0.217,0.335-0.407,0.38c-2.218,0.543-4.443,0.932-6.688,1.158c-0.072,0.009-0.145,0.018-0.217,0.018
	c-0.986,0.1-1.964,0.163-2.941,0.199c-0.227,0.009-0.443,0.018-0.67,0.018c-2.009,0.055-4.018-0.018-6.018-0.217
	c-0.226-0.018-0.443-0.036-0.661-0.063c-0.878-0.1-1.756-0.226-2.624-0.371c-0.38-0.063-0.76-0.136-1.131-0.208
	c-0.715-0.136-1.421-0.29-2.127-0.453c-0.253-0.063-0.516-0.117-0.769-0.181c-1.023-0.263-2.036-0.543-3.05-0.878
	c-1.828-0.588-3.62-1.285-5.376-2.099l-0.082-0.036c-0.579-0.272-1.149-0.543-1.719-0.842c-1.194-0.606-2.371-1.267-3.547-2
	c-0.172-0.108-0.28-0.308-0.272-0.516c0.009-0.199,0.127-0.389,0.308-0.48l5.403-2.76c0.163-0.082,0.362-0.082,0.525,0.009
	c0.136,0.063,0.271,0.127,0.398,0.199h0.009h0.009c0.506,0.262,1.013,0.507,1.529,0.751c0.019,0.009,0.045,0.009,0.073,0.027
	c0.48,0.217,0.959,0.434,1.448,0.633c0.136,0.054,0.272,0.108,0.398,0.163c0.371,0.145,0.742,0.29,1.113,0.435
	c0.344,0.126,0.688,0.244,1.023,0.362c0.172,0.054,0.335,0.118,0.498,0.172c0.081,0.027,0.154,0.054,0.235,0.082
	c0.19,0.054,0.38,0.108,0.561,0.163c0.417,0.127,0.842,0.253,1.258,0.362c0.389,0.108,0.769,0.217,1.158,0.308
	c0.163,0.045,0.317,0.072,0.48,0.108c0.942,0.226,1.883,0.407,2.833,0.561c0.063,0.018,0.136,0.027,0.199,0.036
	c0.037,0.009,0.082,0.009,0.118,0.018c0.507,0.082,1.023,0.154,1.539,0.217c0.099,0.009,0.199,0.018,0.298,0.027
	c0.815,0.09,1.629,0.163,2.444,0.199c0.389,0.027,0.787,0.036,1.176,0.045c0.298,0.009,0.597,0.027,0.896,0.027
	c0.091,0,0.181,0,0.271,0c0.643,0,1.294-0.019,1.946-0.045c0.055,0,0.1-0.009,0.154-0.009c0.806-0.036,1.611-0.108,2.416-0.19
	c0.036-0.009,0.073-0.009,0.109-0.009c0.851-0.1,1.701-0.209,2.552-0.353c0.181-0.027,0.371,0.036,0.507,0.163l4.281,4.28
	C84.911,116.768,84.965,116.976,84.911,117.175z M92.965,76.95c-1.638,0.833-2.742,2.995-2.452,4.805l4.697,29.674
	c0.181,1.131-0.073,1.719-0.607,1.683c-0.326-0.018-0.742-0.262-1.231-0.751L72.133,91.121c-0.453-0.452-1.05-0.787-1.692-1.005
	c-1.195-0.398-2.579-0.38-3.638,0.163l-26.76,13.637c-1.629,0.833-2.289,0.172-1.457-1.457l13.637-26.76
	c0.833-1.638,0.453-4.036-0.851-5.339l0,0l0,0L30.133,49.131c-0.316-0.326-0.534-0.624-0.651-0.878
	c-0.344-0.76,0.235-1.176,1.593-0.96l29.664,4.697c1.81,0.29,3.973-0.815,4.805-2.452l6.796-13.33l0,0l6.842-13.43
	c0.208-0.407,0.425-0.706,0.633-0.896c0.615-0.57,1.186-0.145,1.403,1.213l4.697,29.664c0.29,1.81,2.009,3.529,3.819,3.819
	l14.778,2.344l0,0l14.887,2.353c0.941,0.154,1.421,0.471,1.448,0.86c0.027,0.362-0.335,0.778-1.122,1.176L92.965,76.95z
	 M121.833,74.633c-0.037,0.353-0.063,0.706-0.109,1.05c-0.054,0.453-0.118,0.887-0.181,1.321c-0.055,0.38-0.118,0.76-0.19,1.131
	c-0.081,0.489-0.163,0.968-0.262,1.448c-0.145,0.733-0.308,1.457-0.489,2.172c-0.1,0.407-0.217,0.806-0.335,1.204
	c-0.127,0.471-0.263,0.932-0.407,1.403c-0.127,0.417-0.263,0.833-0.407,1.249c-0.072,0.217-0.145,0.434-0.226,0.651
	c-0.127,0.38-0.272,0.751-0.417,1.122c-0.126,0.316-0.244,0.643-0.38,0.959c-0.091,0.226-0.181,0.443-0.281,0.661
	c-0.443,1.041-0.914,2.063-1.43,3.077c-0.371,0.724-0.751,1.439-1.158,2.144c-0.027,0.055-0.063,0.109-0.09,0.163
	c-0.344,0.588-0.697,1.168-1.059,1.738c-0.163,0.253-0.326,0.516-0.498,0.769c-0.227,0.344-0.461,0.688-0.697,1.023
	c-0.263,0.38-0.525,0.751-0.806,1.122c-0.135,0.19-0.28,0.38-0.434,0.57c-0.344,0.461-0.697,0.914-1.068,1.357
	c-0.063,0.082-0.126,0.154-0.19,0.235c-1.828,2.19-3.855,4.235-6.063,6.109c-0.045,0.036-0.1,0.063-0.154,0.09
	c-0.009,0-0.018,0.009-0.027,0.009c-0.063,0.027-0.118,0.036-0.181,0.036c-0.018,0-0.036,0-0.045,0
	c-0.063-0.009-0.118-0.018-0.172-0.036c-0.181-0.063-0.308-0.227-0.353-0.407c0-0.009-0.009-0.018-0.009-0.027l-0.95-6
	c-0.027-0.181,0.036-0.371,0.163-0.498c0.09-0.091,0.172-0.181,0.253-0.272c0.724-0.715,1.421-1.448,2.081-2.208
	c0.045-0.054,0.09-0.1,0.126-0.145c4.552-5.24,7.71-11.421,9.303-18.19c0.063-0.245,0.109-0.489,0.163-0.742
	c0.072-0.308,0.145-0.615,0.199-0.932c0.063-0.308,0.118-0.615,0.172-0.932c0.036-0.199,0.072-0.407,0.108-0.615
	c0.009-0.063,0.018-0.136,0.027-0.199c0.009-0.082,0.027-0.163,0.045-0.253c0.009-0.09,0.045-0.172,0.1-0.244
	c0.054-0.073,0.118-0.136,0.199-0.172l5.403-2.751c0.181-0.1,0.407-0.082,0.579,0.027c0.172,0.118,0.272,0.316,0.262,0.524
	C121.914,73.8,121.869,74.217,121.833,74.633z"/>
</svg>
