<?xml version="1.0" encoding="utf-8"?>
<!-- Generator: Adobe Illustrator 19.1.0, SVG Export Plug-In . SVG Version: 6.00 Build 0)  -->
<svg version="1.1" id="Layer_1" xmlns="http://www.w3.org/2000/svg" xmlns:xlink="http://www.w3.org/1999/xlink" x="0px" y="0px"
	 viewBox="0 0 144 144" enable-background="new 0 0 144 144" xml:space="preserve">
<path fill="#FFFFFF" d="M134.719,87.708l-57.033,46.666c-1.931,1.578-4.703,1.578-6.635,0L13.431,87.23
	c-1.713-1.402-2.361-3.732-1.617-5.813c0.744-2.087,2.722-3.479,4.934-3.479h52.49V20.317c0-2.893,2.346-5.238,5.238-5.238
	c2.893,0,5.238,2.345,5.238,5.238v57.621h52.275c0.036,0,0.067,0,0.105,0c2.893,0,5.238,2.345,5.238,5.238
	C137.333,85.109,136.283,86.803,134.719,87.708z M31.425,88.414l42.944,35.136l42.945-35.136H31.425z"/>
</svg>
